<mxfile host="Electron" agent="Mozilla/5.0 (Windows NT 10.0; Win64; x64) AppleWebKit/537.36 (KHTML, like Gecko) draw.io/24.7.17 Chrome/128.0.6613.36 Electron/32.0.1 Safari/537.36" version="24.7.17">
  <diagram name="Страница — 1" id="wQKSdFFOebkFd4GuXVzu">
    <mxGraphModel dx="2062" dy="1909" grid="1" gridSize="10" guides="1" tooltips="1" connect="1" arrows="1" fold="1" page="1" pageScale="1" pageWidth="827" pageHeight="1169" math="0" shadow="0">
      <root>
        <mxCell id="0" />
        <mxCell id="1" parent="0" />
        <mxCell id="pLNJHkzZs69rRtYtt9KI-6" value="" style="endArrow=oval;html=1;rounded=0;endFill=1;strokeColor=#6A6A6A;startArrow=oval;startFill=1;exitX=0.093;exitY=0.202;exitDx=0;exitDy=0;entryX=0.92;entryY=0.783;entryDx=0;entryDy=0;exitPerimeter=0;entryPerimeter=0;" parent="1" source="pLNJHkzZs69rRtYtt9KI-1" target="pLNJHkzZs69rRtYtt9KI-3" edge="1">
          <mxGeometry width="50" height="50" relative="1" as="geometry">
            <mxPoint x="380" y="330.00000000000006" as="sourcePoint" />
            <mxPoint x="444" y="330.00000000000006" as="targetPoint" />
          </mxGeometry>
        </mxCell>
        <mxCell id="pLNJHkzZs69rRtYtt9KI-7" value="" style="endArrow=oval;html=1;rounded=0;endFill=1;strokeColor=#6A6A6A;startArrow=oval;startFill=1;exitX=0;exitY=1;exitDx=0;exitDy=0;entryX=1;entryY=0;entryDx=0;entryDy=0;" parent="1" source="pLNJHkzZs69rRtYtt9KI-1" target="pLNJHkzZs69rRtYtt9KI-4" edge="1">
          <mxGeometry width="50" height="50" relative="1" as="geometry">
            <mxPoint x="393" y="313" as="sourcePoint" />
            <mxPoint x="368" y="288" as="targetPoint" />
          </mxGeometry>
        </mxCell>
        <mxCell id="pLNJHkzZs69rRtYtt9KI-8" value="" style="endArrow=oval;html=1;rounded=0;endFill=1;strokeColor=#6A6A6A;startArrow=oval;startFill=1;exitX=1;exitY=1;exitDx=0;exitDy=0;entryX=0;entryY=0;entryDx=0;entryDy=0;" parent="1" source="pLNJHkzZs69rRtYtt9KI-1" target="pLNJHkzZs69rRtYtt9KI-5" edge="1">
          <mxGeometry width="50" height="50" relative="1" as="geometry">
            <mxPoint x="393" y="377" as="sourcePoint" />
            <mxPoint x="348" y="412" as="targetPoint" />
          </mxGeometry>
        </mxCell>
        <mxCell id="pLNJHkzZs69rRtYtt9KI-9" value="" style="endArrow=oval;html=1;rounded=0;endFill=1;strokeColor=#6A6A6A;startArrow=oval;startFill=1;exitX=0.916;exitY=0.236;exitDx=0;exitDy=0;entryX=0.087;entryY=0.772;entryDx=0;entryDy=0;exitPerimeter=0;entryPerimeter=0;" parent="1" source="pLNJHkzZs69rRtYtt9KI-1" target="pLNJHkzZs69rRtYtt9KI-2" edge="1">
          <mxGeometry width="50" height="50" relative="1" as="geometry">
            <mxPoint x="457" y="377" as="sourcePoint" />
            <mxPoint x="510" y="420" as="targetPoint" />
          </mxGeometry>
        </mxCell>
        <mxCell id="pLNJHkzZs69rRtYtt9KI-1" value="Безопасность&lt;div&gt;данных&lt;/div&gt;" style="ellipse;whiteSpace=wrap;html=1;aspect=fixed;" parent="1" vertex="1">
          <mxGeometry x="370" y="290" width="90" height="90" as="geometry" />
        </mxCell>
        <mxCell id="pLNJHkzZs69rRtYtt9KI-3" value="Внутренние&lt;div&gt;данные&lt;/div&gt;" style="ellipse;whiteSpace=wrap;html=1;aspect=fixed;" parent="1" vertex="1">
          <mxGeometry x="260" y="210" width="80" height="80" as="geometry" />
        </mxCell>
        <mxCell id="pLNJHkzZs69rRtYtt9KI-2" value="Публичные&lt;div&gt;данные&lt;/div&gt;" style="ellipse;whiteSpace=wrap;html=1;aspect=fixed;" parent="1" vertex="1">
          <mxGeometry x="490" y="220" width="80" height="80" as="geometry" />
        </mxCell>
        <mxCell id="pLNJHkzZs69rRtYtt9KI-5" value="Секретные&lt;div&gt;данные&lt;/div&gt;" style="ellipse;whiteSpace=wrap;html=1;aspect=fixed;align=center;" parent="1" vertex="1">
          <mxGeometry x="490" y="400" width="80" height="80" as="geometry" />
        </mxCell>
        <mxCell id="pLNJHkzZs69rRtYtt9KI-4" value="Конфиденциальные&lt;div&gt;данные&lt;/div&gt;" style="ellipse;whiteSpace=wrap;html=1;aspect=fixed;align=center;" parent="1" vertex="1">
          <mxGeometry x="270" y="390" width="80" height="80" as="geometry" />
        </mxCell>
        <mxCell id="pLNJHkzZs69rRtYtt9KI-11" value="Объекты недвижимости" style="text;html=1;align=left;verticalAlign=middle;whiteSpace=wrap;rounded=0;" parent="1" vertex="1">
          <mxGeometry x="642" y="210" width="60" height="30" as="geometry" />
        </mxCell>
        <mxCell id="pLNJHkzZs69rRtYtt9KI-15" value="" style="endArrow=open;html=1;rounded=0;endFill=0;strokeColor=#6A6A6A;" parent="1" edge="1">
          <mxGeometry width="50" height="50" relative="1" as="geometry">
            <mxPoint x="570" y="259.5" as="sourcePoint" />
            <mxPoint x="634" y="259.5" as="targetPoint" />
          </mxGeometry>
        </mxCell>
        <mxCell id="pLNJHkzZs69rRtYtt9KI-16" value="Площадь&lt;div&gt;Стоимость&lt;/div&gt;&lt;div&gt;Адрес&lt;/div&gt;&lt;div&gt;Дата ввода в эксплуатацию&lt;/div&gt;&lt;div&gt;Количество комнат&lt;/div&gt;&lt;div&gt;Статус бронирования&lt;/div&gt;" style="text;html=1;align=left;verticalAlign=middle;whiteSpace=wrap;rounded=0;" parent="1" vertex="1">
          <mxGeometry x="669" y="272" width="170" height="30" as="geometry" />
        </mxCell>
        <mxCell id="pLNJHkzZs69rRtYtt9KI-19" value="" style="endArrow=none;html=1;rounded=0;endFill=0;strokeColor=#6A6A6A;exitX=0.25;exitY=1;exitDx=0;exitDy=0;" parent="1" source="pLNJHkzZs69rRtYtt9KI-11" edge="1">
          <mxGeometry width="50" height="50" relative="1" as="geometry">
            <mxPoint x="660" y="249.5" as="sourcePoint" />
            <mxPoint x="657" y="330" as="targetPoint" />
          </mxGeometry>
        </mxCell>
        <mxCell id="pLNJHkzZs69rRtYtt9KI-20" value="Сервисы для собственников" style="text;html=1;align=left;verticalAlign=middle;whiteSpace=wrap;rounded=0;" parent="1" vertex="1">
          <mxGeometry x="652" y="76" width="110" height="30" as="geometry" />
        </mxCell>
        <mxCell id="pLNJHkzZs69rRtYtt9KI-21" value="Описание&lt;div&gt;Условия предоставления&lt;/div&gt;&lt;div&gt;Контакты для обращений&lt;/div&gt;&lt;div&gt;Стоимость&lt;/div&gt;&lt;div&gt;Инструкции пользователя&lt;/div&gt;" style="text;html=1;align=left;verticalAlign=middle;whiteSpace=wrap;rounded=0;" parent="1" vertex="1">
          <mxGeometry x="672" y="130" width="170" height="30" as="geometry" />
        </mxCell>
        <mxCell id="pLNJHkzZs69rRtYtt9KI-22" value="" style="endArrow=open;html=1;rounded=0;endFill=0;strokeColor=#6A6A6A;exitX=1;exitY=0;exitDx=0;exitDy=0;" parent="1" source="pLNJHkzZs69rRtYtt9KI-2" edge="1">
          <mxGeometry width="50" height="50" relative="1" as="geometry">
            <mxPoint x="580" y="269.5" as="sourcePoint" />
            <mxPoint x="650" y="150" as="targetPoint" />
          </mxGeometry>
        </mxCell>
        <mxCell id="pLNJHkzZs69rRtYtt9KI-23" value="" style="endArrow=none;html=1;rounded=0;endFill=0;strokeColor=#6A6A6A;exitX=0.075;exitY=1.052;exitDx=0;exitDy=0;exitPerimeter=0;" parent="1" source="pLNJHkzZs69rRtYtt9KI-20" edge="1">
          <mxGeometry width="50" height="50" relative="1" as="geometry">
            <mxPoint x="662" y="111" as="sourcePoint" />
            <mxPoint x="660" y="180" as="targetPoint" />
          </mxGeometry>
        </mxCell>
        <mxCell id="DowWyQNthBfB8AXx0NW_-1" value="Инструкции службы сопровождения" style="text;html=1;align=left;verticalAlign=middle;whiteSpace=wrap;rounded=0;" parent="1" vertex="1">
          <mxGeometry x="100" y="100" width="150" height="30" as="geometry" />
        </mxCell>
        <mxCell id="DowWyQNthBfB8AXx0NW_-2" value="Руководство администратора витрины продаж&lt;div&gt;Скрипт обработки инцидентов первой линии&lt;/div&gt;" style="text;html=1;align=left;verticalAlign=middle;whiteSpace=wrap;rounded=0;" parent="1" vertex="1">
          <mxGeometry x="120" y="150" width="170" height="30" as="geometry" />
        </mxCell>
        <mxCell id="DowWyQNthBfB8AXx0NW_-3" value="" style="endArrow=none;html=1;rounded=0;endFill=0;strokeColor=#6A6A6A;" parent="1" edge="1">
          <mxGeometry width="50" height="50" relative="1" as="geometry">
            <mxPoint x="110" y="140" as="sourcePoint" />
            <mxPoint x="110" y="200" as="targetPoint" />
          </mxGeometry>
        </mxCell>
        <mxCell id="DowWyQNthBfB8AXx0NW_-4" value="" style="endArrow=open;html=1;rounded=0;endFill=0;strokeColor=#6A6A6A;exitX=0.055;exitY=0.275;exitDx=0;exitDy=0;exitPerimeter=0;" parent="1" source="pLNJHkzZs69rRtYtt9KI-3" edge="1">
          <mxGeometry width="50" height="50" relative="1" as="geometry">
            <mxPoint x="260" y="230" as="sourcePoint" />
            <mxPoint x="200" y="200" as="targetPoint" />
          </mxGeometry>
        </mxCell>
        <mxCell id="DowWyQNthBfB8AXx0NW_-5" value="Внутренние методики бух учёта" style="text;html=1;align=left;verticalAlign=middle;whiteSpace=wrap;rounded=0;" parent="1" vertex="1">
          <mxGeometry x="30" y="210" width="150" height="30" as="geometry" />
        </mxCell>
        <mxCell id="DowWyQNthBfB8AXx0NW_-6" value="План счетов&lt;div&gt;Методика бухгалтерского учёта&lt;/div&gt;" style="text;html=1;align=left;verticalAlign=middle;whiteSpace=wrap;rounded=0;" parent="1" vertex="1">
          <mxGeometry x="50" y="253" width="170" height="30" as="geometry" />
        </mxCell>
        <mxCell id="DowWyQNthBfB8AXx0NW_-7" value="" style="endArrow=none;html=1;rounded=0;endFill=0;strokeColor=#6A6A6A;" parent="1" edge="1">
          <mxGeometry width="50" height="50" relative="1" as="geometry">
            <mxPoint x="40" y="250" as="sourcePoint" />
            <mxPoint x="40" y="290" as="targetPoint" />
          </mxGeometry>
        </mxCell>
        <mxCell id="DowWyQNthBfB8AXx0NW_-8" value="" style="endArrow=open;html=1;rounded=0;endFill=0;strokeColor=#6A6A6A;exitX=0;exitY=0.5;exitDx=0;exitDy=0;" parent="1" source="pLNJHkzZs69rRtYtt9KI-3" edge="1">
          <mxGeometry width="50" height="50" relative="1" as="geometry">
            <mxPoint x="274" y="242" as="sourcePoint" />
            <mxPoint x="190" y="242" as="targetPoint" />
          </mxGeometry>
        </mxCell>
        <mxCell id="DowWyQNthBfB8AXx0NW_-9" value="Описания информационных систем" style="text;html=1;align=left;verticalAlign=middle;whiteSpace=wrap;rounded=0;" parent="1" vertex="1">
          <mxGeometry x="300" y="75" width="150" height="30" as="geometry" />
        </mxCell>
        <mxCell id="DowWyQNthBfB8AXx0NW_-10" value="Технические задания на доработку систем&lt;div&gt;Описание архитектуры систем&lt;/div&gt;&lt;div&gt;&lt;br&gt;&lt;/div&gt;" style="text;html=1;align=left;verticalAlign=middle;whiteSpace=wrap;rounded=0;" parent="1" vertex="1">
          <mxGeometry x="320" y="130" width="170" height="30" as="geometry" />
        </mxCell>
        <mxCell id="DowWyQNthBfB8AXx0NW_-11" value="" style="endArrow=none;html=1;rounded=0;endFill=0;strokeColor=#6A6A6A;" parent="1" edge="1">
          <mxGeometry width="50" height="50" relative="1" as="geometry">
            <mxPoint x="310" y="111" as="sourcePoint" />
            <mxPoint x="310" y="171" as="targetPoint" />
          </mxGeometry>
        </mxCell>
        <mxCell id="DowWyQNthBfB8AXx0NW_-13" value="" style="endArrow=open;html=1;rounded=0;endFill=0;strokeColor=#6A6A6A;exitX=0.598;exitY=0.001;exitDx=0;exitDy=0;exitPerimeter=0;" parent="1" source="pLNJHkzZs69rRtYtt9KI-3" edge="1">
          <mxGeometry width="50" height="50" relative="1" as="geometry">
            <mxPoint x="568" y="242" as="sourcePoint" />
            <mxPoint x="310" y="180" as="targetPoint" />
          </mxGeometry>
        </mxCell>
        <mxCell id="DowWyQNthBfB8AXx0NW_-17" value="Собственники" style="text;html=1;align=left;verticalAlign=middle;whiteSpace=wrap;rounded=0;" parent="1" vertex="1">
          <mxGeometry x="60" y="354" width="150" height="30" as="geometry" />
        </mxCell>
        <mxCell id="DowWyQNthBfB8AXx0NW_-18" value="Контактные данны&lt;div&gt;Объект недвижимости&lt;/div&gt;&lt;div&gt;История транзакций&lt;/div&gt;" style="text;html=1;align=left;verticalAlign=middle;whiteSpace=wrap;rounded=0;" parent="1" vertex="1">
          <mxGeometry x="80" y="389" width="170" height="30" as="geometry" />
        </mxCell>
        <mxCell id="DowWyQNthBfB8AXx0NW_-19" value="" style="endArrow=none;html=1;rounded=0;endFill=0;strokeColor=#6A6A6A;" parent="1" edge="1">
          <mxGeometry width="50" height="50" relative="1" as="geometry">
            <mxPoint x="70" y="385" as="sourcePoint" />
            <mxPoint x="70" y="425" as="targetPoint" />
          </mxGeometry>
        </mxCell>
        <mxCell id="DowWyQNthBfB8AXx0NW_-20" value="Заявки на бронирование" style="text;html=1;align=left;verticalAlign=middle;whiteSpace=wrap;rounded=0;" parent="1" vertex="1">
          <mxGeometry x="70" y="460" width="150" height="30" as="geometry" />
        </mxCell>
        <mxCell id="DowWyQNthBfB8AXx0NW_-21" value="&lt;div&gt;ФИО&lt;/div&gt;Телефон&lt;div&gt;Электронная почта&lt;/div&gt;" style="text;html=1;align=left;verticalAlign=middle;whiteSpace=wrap;rounded=0;" parent="1" vertex="1">
          <mxGeometry x="90" y="495" width="170" height="30" as="geometry" />
        </mxCell>
        <mxCell id="DowWyQNthBfB8AXx0NW_-22" value="" style="endArrow=none;html=1;rounded=0;endFill=0;strokeColor=#6A6A6A;" parent="1" edge="1">
          <mxGeometry width="50" height="50" relative="1" as="geometry">
            <mxPoint x="80" y="492" as="sourcePoint" />
            <mxPoint x="80" y="532" as="targetPoint" />
          </mxGeometry>
        </mxCell>
        <mxCell id="DowWyQNthBfB8AXx0NW_-23" value="" style="endArrow=open;html=1;rounded=0;endFill=0;strokeColor=#6A6A6A;entryX=0.882;entryY=0.567;entryDx=0;entryDy=0;entryPerimeter=0;" parent="1" source="pLNJHkzZs69rRtYtt9KI-4" target="DowWyQNthBfB8AXx0NW_-18" edge="1">
          <mxGeometry width="50" height="50" relative="1" as="geometry">
            <mxPoint x="270" y="260" as="sourcePoint" />
            <mxPoint x="200" y="252" as="targetPoint" />
          </mxGeometry>
        </mxCell>
        <mxCell id="DowWyQNthBfB8AXx0NW_-24" value="Онлайн сделки" style="text;html=1;align=left;verticalAlign=middle;whiteSpace=wrap;rounded=0;" parent="1" vertex="1">
          <mxGeometry x="620" y="408" width="150" height="30" as="geometry" />
        </mxCell>
        <mxCell id="yJTnRfHsrzNrONzSAxBu-6" style="edgeStyle=orthogonalEdgeStyle;rounded=0;orthogonalLoop=1;jettySize=auto;html=1;entryX=0;entryY=0.5;entryDx=0;entryDy=0;endArrow=none;endFill=0;curved=1;" edge="1" parent="1" source="DowWyQNthBfB8AXx0NW_-25" target="yJTnRfHsrzNrONzSAxBu-5">
          <mxGeometry relative="1" as="geometry" />
        </mxCell>
        <mxCell id="DowWyQNthBfB8AXx0NW_-25" value="&lt;div&gt;Паспортные данные&lt;/div&gt;&lt;div&gt;Банковские реквизиты&lt;/div&gt;&lt;div&gt;Справки 2НДФЛ&lt;/div&gt;" style="text;html=1;align=left;verticalAlign=middle;whiteSpace=wrap;rounded=0;" parent="1" vertex="1">
          <mxGeometry x="640" y="443" width="170" height="30" as="geometry" />
        </mxCell>
        <mxCell id="DowWyQNthBfB8AXx0NW_-26" value="" style="endArrow=none;html=1;rounded=0;endFill=0;strokeColor=#6A6A6A;" parent="1" edge="1">
          <mxGeometry width="50" height="50" relative="1" as="geometry">
            <mxPoint x="630" y="440" as="sourcePoint" />
            <mxPoint x="630" y="480" as="targetPoint" />
          </mxGeometry>
        </mxCell>
        <mxCell id="DowWyQNthBfB8AXx0NW_-27" value="" style="endArrow=open;html=1;rounded=0;endFill=0;strokeColor=#6A6A6A;exitX=0.047;exitY=0.742;exitDx=0;exitDy=0;exitPerimeter=0;" parent="1" source="pLNJHkzZs69rRtYtt9KI-4" edge="1">
          <mxGeometry width="50" height="50" relative="1" as="geometry">
            <mxPoint x="281" y="431" as="sourcePoint" />
            <mxPoint x="230" y="490" as="targetPoint" />
          </mxGeometry>
        </mxCell>
        <mxCell id="DowWyQNthBfB8AXx0NW_-29" value="" style="endArrow=open;html=1;rounded=0;endFill=0;strokeColor=#6A6A6A;" parent="1" edge="1">
          <mxGeometry width="50" height="50" relative="1" as="geometry">
            <mxPoint x="570" y="438" as="sourcePoint" />
            <mxPoint x="610" y="438" as="targetPoint" />
          </mxGeometry>
        </mxCell>
        <mxCell id="DowWyQNthBfB8AXx0NW_-36" value="" style="group" parent="1" vertex="1" connectable="0">
          <mxGeometry x="-340" y="329" width="360" height="90" as="geometry" />
        </mxCell>
        <mxCell id="DowWyQNthBfB8AXx0NW_-38" value="&lt;ul&gt;&lt;li&gt;&lt;font face=&quot;SB Sans Interface&quot;&gt;Риск искажения (значительный), &lt;/font&gt;&lt;/li&gt;&lt;li&gt;&lt;font face=&quot;SB Sans Interface&quot;&gt;Риск утечки (значительный).&amp;nbsp;&amp;nbsp;&lt;/font&gt;&lt;/li&gt;&lt;/ul&gt;&lt;div&gt;&lt;font face=&quot;SB Sans Interface&quot;&gt;По описанию задачи пользователи на данный момент жалуются, что в ЛК видно чужие данные. Этот баг вероятно возможно эксплуатировать для получения чужих данных.&lt;/font&gt;&lt;/div&gt;" style="whiteSpace=wrap;html=1;fillColor=#222222;strokeColor=none;opacity=10;labelPosition=center;verticalLabelPosition=middle;align=left;verticalAlign=top;spacingLeft=7;spacingBottom=7;spacingRight=7;" parent="DowWyQNthBfB8AXx0NW_-36" vertex="1">
          <mxGeometry y="-60" width="308.57" height="123.86" as="geometry" />
        </mxCell>
        <mxCell id="yJTnRfHsrzNrONzSAxBu-4" style="edgeStyle=orthogonalEdgeStyle;rounded=0;orthogonalLoop=1;jettySize=auto;html=1;endArrow=none;endFill=0;curved=1;exitX=1;exitY=0.5;exitDx=0;exitDy=0;entryX=0;entryY=0.5;entryDx=0;entryDy=0;" edge="1" parent="1" source="bxxkizsVuU8ksRjW7ku--2" target="yJTnRfHsrzNrONzSAxBu-3">
          <mxGeometry relative="1" as="geometry">
            <Array as="points">
              <mxPoint x="770" y="560" />
              <mxPoint x="770" y="623" />
            </Array>
          </mxGeometry>
        </mxCell>
        <mxCell id="bxxkizsVuU8ksRjW7ku--1" value="Данные &quot;Умного дома&quot;" style="text;html=1;align=left;verticalAlign=middle;whiteSpace=wrap;rounded=0;" parent="1" vertex="1">
          <mxGeometry x="550" y="510" width="150" height="30" as="geometry" />
        </mxCell>
        <mxCell id="bxxkizsVuU8ksRjW7ku--2" value="&lt;div&gt;Состояние отпирающего замка дома&lt;/div&gt;" style="text;html=1;align=left;verticalAlign=middle;whiteSpace=wrap;rounded=0;" parent="1" vertex="1">
          <mxGeometry x="570" y="545" width="170" height="30" as="geometry" />
        </mxCell>
        <mxCell id="bxxkizsVuU8ksRjW7ku--3" value="" style="endArrow=none;html=1;rounded=0;endFill=0;strokeColor=#6A6A6A;" parent="1" edge="1">
          <mxGeometry width="50" height="50" relative="1" as="geometry">
            <mxPoint x="560" y="542" as="sourcePoint" />
            <mxPoint x="560" y="582" as="targetPoint" />
          </mxGeometry>
        </mxCell>
        <mxCell id="bxxkizsVuU8ksRjW7ku--4" value="" style="endArrow=open;html=1;rounded=0;endFill=0;strokeColor=#6A6A6A;exitX=1;exitY=1;exitDx=0;exitDy=0;" parent="1" source="pLNJHkzZs69rRtYtt9KI-5" edge="1">
          <mxGeometry width="50" height="50" relative="1" as="geometry">
            <mxPoint x="580" y="448" as="sourcePoint" />
            <mxPoint x="580" y="500" as="targetPoint" />
          </mxGeometry>
        </mxCell>
        <mxCell id="yJTnRfHsrzNrONzSAxBu-1" style="edgeStyle=orthogonalEdgeStyle;rounded=0;orthogonalLoop=1;jettySize=auto;html=1;curved=1;endArrow=none;endFill=0;" edge="1" parent="1" source="DowWyQNthBfB8AXx0NW_-38">
          <mxGeometry relative="1" as="geometry">
            <mxPoint x="70" y="400" as="targetPoint" />
            <Array as="points">
              <mxPoint x="10" y="331" />
              <mxPoint x="10" y="400" />
            </Array>
          </mxGeometry>
        </mxCell>
        <mxCell id="yJTnRfHsrzNrONzSAxBu-3" value="&lt;ul&gt;&lt;li&gt;&lt;font face=&quot;SB Sans Interface&quot;&gt;Риск неправомочной эксплуатации информационно-вычислительных ресурсов&lt;/font&gt;&lt;/li&gt;&lt;/ul&gt;&lt;div&gt;&lt;font face=&quot;SB Sans Interface&quot;&gt;При получении доступа к физическим устройствам умного дома возможно их эксплуатировать в целях злого умысла&amp;nbsp;&lt;/font&gt;&lt;/div&gt;" style="whiteSpace=wrap;html=1;fillColor=#222222;strokeColor=none;opacity=10;labelPosition=center;verticalLabelPosition=middle;align=left;verticalAlign=top;spacingLeft=7;spacingBottom=7;spacingRight=7;" vertex="1" parent="1">
          <mxGeometry x="820" y="570" width="308.57" height="105" as="geometry" />
        </mxCell>
        <mxCell id="yJTnRfHsrzNrONzSAxBu-5" value="&lt;ul&gt;&lt;li&gt;&lt;font face=&quot;SB Sans Interface&quot;&gt;Риск утечки данных (значительный)&lt;/font&gt;&lt;/li&gt;&lt;li&gt;&lt;font face=&quot;SB Sans Interface&quot;&gt;Риск искажения данных (значительный)&lt;/font&gt;&lt;/li&gt;&lt;/ul&gt;&lt;div&gt;&lt;font face=&quot;SB Sans Interface&quot;&gt;Данные из этой категории могут быть использованы для злового умысла т.к. содержат максимально подробную информацию как о сторонах договора, так и о сделке.&lt;/font&gt;&lt;/div&gt;" style="whiteSpace=wrap;html=1;fillColor=#222222;strokeColor=none;opacity=10;labelPosition=center;verticalLabelPosition=middle;align=left;verticalAlign=top;spacingLeft=7;spacingBottom=7;spacingRight=7;" vertex="1" parent="1">
          <mxGeometry x="890" y="370.5" width="308.57" height="109.5" as="geometry" />
        </mxCell>
        <mxCell id="yJTnRfHsrzNrONzSAxBu-8" style="edgeStyle=orthogonalEdgeStyle;rounded=0;orthogonalLoop=1;jettySize=auto;html=1;endArrow=none;endFill=0;curved=1;exitX=1;exitY=0.5;exitDx=0;exitDy=0;" edge="1" parent="1" source="yJTnRfHsrzNrONzSAxBu-7">
          <mxGeometry relative="1" as="geometry">
            <mxPoint x="80" y="510" as="targetPoint" />
            <Array as="points">
              <mxPoint x="-51" y="520" />
              <mxPoint x="81" y="520" />
            </Array>
          </mxGeometry>
        </mxCell>
        <mxCell id="yJTnRfHsrzNrONzSAxBu-7" value="&lt;ul&gt;&lt;li&gt;&lt;span style=&quot;font-family: &amp;quot;SB Sans Interface&amp;quot;; background-color: initial;&quot;&gt;Риск утечки&amp;nbsp;&amp;nbsp;&lt;/span&gt;&lt;br&gt;&lt;/li&gt;&lt;/ul&gt;&lt;div&gt;Содержат персональные данные, поэтому может быть использованы для телефонного мошенничества и др. видов&lt;/div&gt;" style="whiteSpace=wrap;html=1;fillColor=#222222;strokeColor=none;opacity=10;labelPosition=center;verticalLabelPosition=middle;align=left;verticalAlign=top;spacingLeft=7;spacingBottom=7;spacingRight=7;" vertex="1" parent="1">
          <mxGeometry x="-360" y="510" width="308.57" height="100" as="geometry" />
        </mxCell>
        <mxCell id="yJTnRfHsrzNrONzSAxBu-10" style="edgeStyle=orthogonalEdgeStyle;rounded=0;orthogonalLoop=1;jettySize=auto;html=1;curved=1;endArrow=none;endFill=0;exitX=1;exitY=0.5;exitDx=0;exitDy=0;" edge="1" parent="1" source="yJTnRfHsrzNrONzSAxBu-9">
          <mxGeometry relative="1" as="geometry">
            <mxPoint x="110" y="170" as="targetPoint" />
            <Array as="points">
              <mxPoint x="30" y="68" />
              <mxPoint x="80" y="68" />
              <mxPoint x="80" y="170" />
            </Array>
          </mxGeometry>
        </mxCell>
        <mxCell id="yJTnRfHsrzNrONzSAxBu-12" style="edgeStyle=orthogonalEdgeStyle;rounded=0;orthogonalLoop=1;jettySize=auto;html=1;endArrow=none;endFill=0;curved=1;exitX=1;exitY=0.5;exitDx=0;exitDy=0;" edge="1" parent="1" source="yJTnRfHsrzNrONzSAxBu-9">
          <mxGeometry relative="1" as="geometry">
            <mxPoint x="40" y="270" as="targetPoint" />
            <mxPoint x="10" y="100" as="sourcePoint" />
            <Array as="points">
              <mxPoint x="10" y="38" />
              <mxPoint x="10" y="270" />
            </Array>
          </mxGeometry>
        </mxCell>
        <mxCell id="yJTnRfHsrzNrONzSAxBu-9" value="&lt;ul&gt;&lt;li&gt;&lt;font face=&quot;SB Sans Interface&quot;&gt;Риск некачественных данных&amp;nbsp;&lt;/font&gt;&lt;span style=&quot;font-family: &amp;quot;SB Sans Interface&amp;quot;;&quot;&gt;(незначительный)&lt;/span&gt;&lt;/li&gt;&lt;li&gt;&lt;font face=&quot;SB Sans Interface&quot;&gt;Риск потери данных (незначительный)&lt;/font&gt;&lt;/li&gt;&lt;li&gt;&lt;font face=&quot;SB Sans Interface&quot;&gt;Риск утечки (незначительные)&lt;/font&gt;&lt;/li&gt;&lt;/ul&gt;&lt;div&gt;Учётные записи на сколько я понимаю компанией не контроллируются. Есть риск например что уволенный сотрудник исказит критичные данные, удалит инструкции и т.п.&lt;/div&gt;" style="whiteSpace=wrap;html=1;fillColor=#222222;strokeColor=none;opacity=10;labelPosition=center;verticalLabelPosition=middle;align=left;verticalAlign=top;spacingLeft=7;spacingBottom=7;spacingRight=7;" vertex="1" parent="1">
          <mxGeometry x="-320" y="-23.86" width="308.57" height="123.86" as="geometry" />
        </mxCell>
        <mxCell id="yJTnRfHsrzNrONzSAxBu-13" style="edgeStyle=orthogonalEdgeStyle;rounded=0;orthogonalLoop=1;jettySize=auto;html=1;endArrow=none;endFill=0;curved=1;exitX=1;exitY=0.5;exitDx=0;exitDy=0;" edge="1" parent="1" source="yJTnRfHsrzNrONzSAxBu-9">
          <mxGeometry relative="1" as="geometry">
            <mxPoint x="310" y="140" as="targetPoint" />
            <mxPoint x="-51" y="101" as="sourcePoint" />
            <Array as="points">
              <mxPoint x="250" y="12" />
              <mxPoint x="250" y="140" />
            </Array>
          </mxGeometry>
        </mxCell>
        <mxCell id="yJTnRfHsrzNrONzSAxBu-15" style="edgeStyle=orthogonalEdgeStyle;rounded=0;orthogonalLoop=1;jettySize=auto;html=1;curved=1;endArrow=none;endFill=0;" edge="1" parent="1" source="yJTnRfHsrzNrONzSAxBu-14">
          <mxGeometry relative="1" as="geometry">
            <mxPoint x="850" y="150" as="targetPoint" />
          </mxGeometry>
        </mxCell>
        <mxCell id="yJTnRfHsrzNrONzSAxBu-14" value="&lt;ul&gt;&lt;li&gt;&lt;font face=&quot;SB Sans Interface&quot;&gt;Риск искажения данных (незначительный)&lt;/font&gt;&lt;/li&gt;&lt;/ul&gt;&lt;div&gt;&lt;font face=&quot;SB Sans Interface&quot;&gt;Например если цены на сайте будут завышены злоумышленником и это вовремя не будет выявлено, то клиенты будут обращаться к конкурсентам.&lt;/font&gt;&lt;/div&gt;" style="whiteSpace=wrap;html=1;fillColor=#222222;strokeColor=none;opacity=10;labelPosition=center;verticalLabelPosition=middle;align=left;verticalAlign=top;spacingLeft=7;spacingBottom=7;spacingRight=7;" vertex="1" parent="1">
          <mxGeometry x="900" y="110.25" width="308.57" height="109.5" as="geometry" />
        </mxCell>
        <mxCell id="yJTnRfHsrzNrONzSAxBu-16" style="edgeStyle=orthogonalEdgeStyle;rounded=0;orthogonalLoop=1;jettySize=auto;html=1;curved=1;endArrow=none;endFill=0;entryX=1;entryY=0;entryDx=0;entryDy=0;exitX=0;exitY=0.5;exitDx=0;exitDy=0;" edge="1" parent="1" source="yJTnRfHsrzNrONzSAxBu-14" target="pLNJHkzZs69rRtYtt9KI-16">
          <mxGeometry relative="1" as="geometry">
            <mxPoint x="860" y="160" as="targetPoint" />
            <mxPoint x="910" y="175" as="sourcePoint" />
            <Array as="points">
              <mxPoint x="870" y="165" />
              <mxPoint x="870" y="272" />
            </Array>
          </mxGeometry>
        </mxCell>
      </root>
    </mxGraphModel>
  </diagram>
</mxfile>
